<svg width="60" height="70" viewBox="0 0 60 70" fill="none" xmlns="http://www.w3.org/2000/svg">
<path fill-rule="evenodd" clip-rule="evenodd" d="M19.1833 27.6859L29.2292 22.0027V15.1092C27.5062 14.0877 25.7535 13.0976 24.04 12.0652C24.017 12.083 23.9941 12.1007 23.9684 12.1158L13.4724 18.2585V24.1824L13.4833 24.1893L19.1833 27.6859ZM24.0819 57.7883L29.2292 54.8756V48.0423L18.8819 41.9624L13.467 45.1254C13.4711 45.2266 13.4724 45.3415 13.4724 45.4755V51.5772L24.0819 57.7883V57.7883ZM30.6535 54.8003L35.6927 57.7527L35.8211 57.8238L46.5265 51.5594L46.5292 45.2813L40.9508 42.0226L30.6535 48.0819V54.8003V54.8003ZM36.6819 58.9356L36.686 59.2378V65.8564C36.686 66.0506 36.5968 66.2243 36.4238 66.3145L30.5197 69.7907C30.0873 70.045 30.036 70.0806 29.6049 69.8221C27.6616 68.6639 25.6765 67.5494 23.7454 66.3761C23.2954 66.1135 23.2035 66.0916 23.2143 65.5624L23.2157 58.8959L12.8224 52.812L12.7968 52.7956L7.30622 56.027C6.87379 56.2813 6.82244 56.3169 6.39136 56.0598C4.44812 54.9002 2.46298 53.787 0.531901 52.6137C0.0819006 52.3498 -0.00999132 52.3279 0.000819488 51.7987L0.00217084 44.7767C0.00217084 44.5251 0.181901 44.4157 0.36163 44.3104L0.384603 44.2981L0.562982 44.1969L6.17785 41.0216V28.7867C4.30217 27.6736 2.39136 26.5988 0.531901 25.4692C0.0819006 25.2053 -0.00999132 25.1834 0.000819488 24.6542L0.00217084 17.6322C0.00217084 17.3806 0.181901 17.2712 0.36163 17.1659L0.384603 17.1536L0.562982 17.0524L6.51028 13.6884C6.76974 13.5434 6.84947 13.5503 7.10352 13.6952L12.4792 16.8445L12.8103 17.0305L23.2143 10.9425L23.2157 4.04901C23.2157 3.7974 23.3954 3.688 23.5751 3.5827L23.5981 3.5704L23.7765 3.4692L29.7238 0.105198C29.9833 -0.0397551 30.063 -0.0329177 30.317 0.113403L35.6927 3.26271L36.0332 3.45279C36.6049 3.76184 36.686 3.8056 36.686 4.7478V10.9247L47.0346 16.9799L47.0562 16.9936L52.8995 13.6884C53.1576 13.5434 53.2387 13.5503 53.4927 13.6952L58.8684 16.8445L59.2089 17.036C59.7792 17.345 59.8616 17.3888 59.8616 18.331V24.9482C59.8616 25.1424 59.7724 25.3161 59.5981 25.4063L53.786 28.8291L53.7819 40.93L59.0062 43.9904L59.3468 44.1805C59.917 44.4895 59.9995 44.5347 59.9995 45.4755V52.0927C59.9995 52.2883 59.9103 52.4606 59.736 52.5522L53.8319 56.027C53.3995 56.2813 53.3495 56.3169 52.9184 56.0598C51.0427 54.9412 49.1305 53.865 47.263 52.7368L47.2008 52.7806L36.6819 58.9356V58.9356ZM24.9508 58.5855L30.0387 61.687L34.9265 58.684L34.936 58.6266L30.136 55.6017C30.0738 55.6195 30.0089 55.629 29.9414 55.629C29.9103 55.629 29.8778 55.6277 29.8481 55.6222L24.9508 58.5855V58.5855ZM29.5468 68.6748V62.543L24.4103 59.4498C24.3387 59.4607 24.2657 59.458 24.1927 59.4416V65.4913L29.5468 68.6748ZM35.5278 59.5127L30.5251 62.5458V68.6816L35.7076 65.5843V59.4881C35.6481 59.5058 35.5887 59.5141 35.5278 59.5127V59.5127ZM30.6535 15.22V22.0122L40.667 27.8842L46.3562 24.5571L46.3887 24.538L46.3914 18.2189L36.0968 12.1937C36.0495 12.1664 36.0049 12.1322 35.967 12.0925L30.6535 15.22V15.22ZM24.9508 4.09414L30.0387 7.19559L34.9778 4.16115L30.0116 1.03235L24.9508 4.09414ZM29.5468 14.1848V8.05163L24.1927 4.82848V10.9999L29.5468 14.1848V14.1848ZM35.7076 4.91326L30.5251 8.05437V14.1903L35.7076 11.0929V4.91326V4.91326ZM52.536 41.116C52.5319 41.0818 52.5305 41.0489 52.5305 41.0148L52.5373 28.7703C50.7778 27.7256 48.9873 26.715 47.2373 25.6607C47.19 25.714 47.1319 25.7619 47.067 25.8002L41.3981 29.1149V40.6278L47.3022 44.0766L52.536 41.116ZM47.7981 45.7326C47.7062 45.7654 47.6049 45.7791 47.5062 45.7709V51.7276L52.8603 54.9125V48.7793L47.7981 45.7326ZM48.2643 44.8218L53.3508 47.9233L58.2914 44.8888L53.3238 41.76L48.2643 44.8218ZM59.0211 45.641L53.8373 48.7821V54.9179L59.0211 51.8206V45.641ZM12.5265 44.0164L18.2535 40.6702V28.7922L12.9684 25.5486L7.4292 28.81V41.0312L12.4792 43.9904L12.5265 44.0164V44.0164ZM6.8346 41.7833L6.80352 41.7847L6.76028 41.7833L1.73731 44.8218L6.82514 47.9233L11.7643 44.8888L6.8346 41.7833ZM6.33325 54.9125V48.7793L0.979198 45.5562V51.7276L6.33325 54.9125V54.9125ZM12.4941 45.641L7.31163 48.7821V54.9179L12.4941 51.8206V45.641V45.641ZM12.4116 24.7253C12.4211 24.6337 12.4495 24.5448 12.4941 24.46V18.4965L7.31163 21.6376V27.7734L12.4116 24.7253ZM1.73731 17.6773L6.82514 20.7788L11.7643 17.7443L6.79812 14.6155L1.73731 17.6773V17.6773ZM6.33325 27.768V21.6348L0.979198 18.4117V24.5831L6.33325 27.768V27.768ZM48.1265 17.6773L53.213 20.7788L58.1535 17.7443L53.186 14.6155L48.1265 17.6773ZM52.7224 27.768V21.6348L47.3684 18.4117V24.5831L52.7224 27.768ZM58.8832 18.4965L53.6995 21.6376V27.7734L58.8832 24.6761V18.4965ZM29.367 46.7582V35.4095L19.4684 29.45V40.8712L29.367 46.7582ZM40.1805 29.5963L30.5833 35.4163V46.7691L40.1805 41.0325V29.5963ZM29.936 22.9367L20.567 28.6049L29.9792 34.3442L39.1251 28.7252L29.936 22.9367Z" fill="#309700"/>
</svg>
