<svg width="71" height="50" viewBox="0 0 71 50" fill="none" xmlns="http://www.w3.org/2000/svg">
<g clip-path="url(#clip0_153_569)">
<path fill-rule="evenodd" clip-rule="evenodd" d="M48.0151 18.744L47.8418 12.3805L37.1987 15.4005C36.2396 15.6048 35.2978 15.707 34.3675 15.707C33.3737 15.7127 32.3972 15.6048 31.4323 15.4005L21.263 12.3464V18.8008C21.5519 22.15 31.3398 23.1775 34.3444 23.3194C36.7538 23.4329 46.2644 22.2011 47.5125 20.271C47.784 19.851 47.9516 19.3401 48.0151 18.744ZM1.46761 47.1216H8.74211C8.20475 46.9854 7.80029 46.4972 7.80029 45.9295V14.3106C7.80029 13.635 8.36654 13.0787 9.05412 13.0787H14.6703C14.4912 13.7088 14.3872 14.3503 14.3757 15.0088H9.94971V45.5776H60.9058V15.0088H56.6128C56.6012 14.3503 56.503 13.7088 56.3239 13.0787H61.6223C62.3099 13.0787 62.8761 13.635 62.8761 14.3106V45.9239C62.8761 46.4972 62.4775 46.9797 61.9343 47.116H69.5382C70.3471 47.116 71.0058 47.7631 71.0058 48.5578C71.0058 49.3526 70.3471 49.9997 69.5382 49.9997H1.46761C0.658691 49.9997 0 49.3526 0 48.5578C0 47.7688 0.658691 47.1216 1.46761 47.1216ZM15.6815 40.128C15.2135 40.128 14.8321 39.7533 14.8321 39.2935C14.8321 38.8337 15.2135 38.4591 15.6815 38.4591H48.8356C49.3036 38.4591 49.685 38.8337 49.685 39.2935C49.685 39.7533 49.3036 40.128 48.8356 40.128H15.6815ZM15.6815 35.1496C15.2135 35.1496 14.8321 34.7749 14.8321 34.3151C14.8321 33.8553 15.2135 33.4806 15.6815 33.4806H41.0642C41.5322 33.4806 41.9136 33.8553 41.9136 34.3151C41.9136 34.7749 41.5322 35.1496 41.0642 35.1496H15.6815ZM15.6815 30.1711C15.2135 30.1711 14.8321 29.7965 14.8321 29.3367C14.8321 28.8769 15.2135 28.5022 15.6815 28.5022H49.1014C49.5694 28.5022 49.9508 28.8769 49.9508 29.3367C49.9508 29.7965 49.5694 30.1711 49.1014 30.1711H15.6815ZM33.4373 47.6609H37.5627C37.9499 47.6609 38.2677 47.9731 38.2677 48.3535C38.2677 48.7338 37.9499 49.046 37.5627 49.046H33.4373C33.0501 49.046 32.7323 48.7338 32.7323 48.3535C32.7323 47.9675 33.0501 47.6609 33.4373 47.6609ZM52.3313 7.79943V15.5765H52.5798C52.7473 15.5765 52.8918 15.7127 52.8918 15.883V17.972C52.8918 18.1366 52.7531 18.2785 52.5798 18.2785H52.3255V19.0108C52.6433 19.0676 52.886 19.3458 52.886 19.675C52.886 20.044 52.574 20.3505 52.1984 20.3505H50.9677C50.5921 20.3505 50.2801 20.0497 50.2801 19.675C50.2801 19.3458 50.5228 19.0733 50.8406 19.0108V18.2785H50.5921C50.4246 18.2785 50.2801 18.1423 50.2801 17.972V15.883C50.2801 15.7127 50.4188 15.5765 50.5921 15.5765H50.8464V8.25357L37.8921 12.2102C35.5462 12.7608 33.2004 12.7949 30.8545 12.2102L16.5597 8.01515L15.2655 7.63481C13.6534 6.98767 14.0579 5.472 15.5544 5.12005L31.727 0.374365C33.3968 -0.0911207 35.0609 -0.164917 36.7307 0.374365L52.6086 5.06328C54.3363 5.47768 54.6772 7.04444 52.6664 7.69158L52.3313 7.79943Z" fill="#FFF6F6"/>
</g>
<defs>
<clipPath id="clip0_153_569">
<rect width="71" height="50" fill="white"/>
</clipPath>
</defs>
</svg>
