<svg width="96" height="96" viewBox="0 0 96 96" fill="none" xmlns="http://www.w3.org/2000/svg">
<g clip-path="url(#clip0_37_32)">
<circle cx="1.5" cy="1.5" r="1.5" fill="#FF6E15"/>
<circle cx="10.5" cy="1.5" r="1.5" fill="#FF6E15"/>
<circle cx="19.5" cy="1.5" r="1.5" fill="#FF6E15"/>
<circle cx="28.5" cy="1.5" r="1.5" fill="#FF6E15"/>
<circle cx="37.5" cy="1.5" r="1.5" fill="#FF6E15"/>
<circle cx="46.5" cy="1.5" r="1.5" fill="#FF6E15"/>
<circle cx="55.5" cy="1.5" r="1.5" fill="#FF6E15"/>
<circle cx="64.5" cy="1.5" r="1.5" fill="#FF6E15"/>
<circle cx="73.5" cy="1.5" r="1.5" fill="#FF6E15"/>
<circle cx="82.5" cy="1.5" r="1.5" fill="#FF6E15"/>
<circle cx="91.5" cy="1.5" r="1.5" fill="#FF6E15"/>
<circle cx="1.5" cy="10.5" r="1.5" fill="#FF6E15"/>
<circle cx="10.5" cy="10.5" r="1.5" fill="#FF6E15"/>
<circle cx="19.5" cy="10.5" r="1.5" fill="#FF6E15"/>
<circle cx="28.5" cy="10.5" r="1.5" fill="#FF6E15"/>
<circle cx="37.5" cy="10.5" r="1.5" fill="#FF6E15"/>
<circle cx="46.5" cy="10.5" r="1.5" fill="#FF6E15"/>
<circle cx="55.5" cy="10.5" r="1.5" fill="#FF6E15"/>
<circle cx="64.5" cy="10.5" r="1.5" fill="#FF6E15"/>
<circle cx="73.5" cy="10.5" r="1.5" fill="#FF6E15"/>
<circle cx="82.5" cy="10.5" r="1.5" fill="#FF6E15"/>
<circle cx="91.5" cy="10.5" r="1.5" fill="#FF6E15"/>
<circle cx="1.5" cy="19.5" r="1.5" fill="#FF6E15"/>
<circle cx="10.5" cy="19.5" r="1.5" fill="#FF6E15"/>
<circle cx="19.5" cy="19.5" r="1.5" fill="#FF6E15"/>
<circle cx="28.5" cy="19.5" r="1.5" fill="#FF6E15"/>
<circle cx="37.5" cy="19.5" r="1.5" fill="#FF6E15"/>
<circle cx="46.5" cy="19.5" r="1.5" fill="#FF6E15"/>
<circle cx="55.5" cy="19.5" r="1.5" fill="#FF6E15"/>
<circle cx="64.5" cy="19.5" r="1.5" fill="#FF6E15"/>
<circle cx="73.5" cy="19.5" r="1.5" fill="#FF6E15"/>
<circle cx="82.5" cy="19.5" r="1.5" fill="#FF6E15"/>
<circle cx="91.5" cy="19.5" r="1.5" fill="#FF6E15"/>
<circle cx="1.5" cy="28.5" r="1.5" fill="#FF6E15"/>
<circle cx="10.5" cy="28.5" r="1.5" fill="#FF6E15"/>
<circle cx="19.5" cy="28.5" r="1.5" fill="#FF6E15"/>
<circle cx="28.5" cy="28.5" r="1.5" fill="#FF6E15"/>
<circle cx="37.5" cy="28.5" r="1.5" fill="#FF6E15"/>
<circle cx="46.5" cy="28.5" r="1.5" fill="#FF6E15"/>
<circle cx="55.5" cy="28.5" r="1.5" fill="#FF6E15"/>
<circle cx="64.5" cy="28.5" r="1.5" fill="#FF6E15"/>
<circle cx="73.5" cy="28.5" r="1.5" fill="#FF6E15"/>
<circle cx="82.5" cy="28.5" r="1.5" fill="#FF6E15"/>
<circle cx="91.5" cy="28.5" r="1.5" fill="#FF6E15"/>
<circle cx="1.5" cy="37.5" r="1.5" fill="#FF6E15"/>
<circle cx="10.5" cy="37.5" r="1.5" fill="#FF6E15"/>
<circle cx="19.5" cy="37.5" r="1.5" fill="#FF6E15"/>
<circle cx="28.5" cy="37.5" r="1.5" fill="#FF6E15"/>
<circle cx="37.5" cy="37.5" r="1.5" fill="#FF6E15"/>
<circle cx="46.5" cy="37.5" r="1.5" fill="#FF6E15"/>
<circle cx="55.5" cy="37.5" r="1.5" fill="#FF6E15"/>
<circle cx="64.5" cy="37.5" r="1.5" fill="#FF6E15"/>
<circle cx="73.5" cy="37.5" r="1.5" fill="#FF6E15"/>
<circle cx="82.5" cy="37.5" r="1.5" fill="#FF6E15"/>
<circle cx="91.5" cy="37.5" r="1.5" fill="#FF6E15"/>
<circle cx="1.5" cy="46.5" r="1.5" fill="#FF6E15"/>
<circle cx="10.5" cy="46.5" r="1.5" fill="#FF6E15"/>
<circle cx="19.5" cy="46.5" r="1.5" fill="#FF6E15"/>
<circle cx="28.5" cy="46.5" r="1.5" fill="#FF6E15"/>
<circle cx="37.5" cy="46.5" r="1.5" fill="#FF6E15"/>
<circle cx="46.5" cy="46.5" r="1.5" fill="#FF6E15"/>
<circle cx="55.5" cy="46.5" r="1.5" fill="#FF6E15"/>
<circle cx="64.5" cy="46.5" r="1.5" fill="#FF6E15"/>
<circle cx="73.5" cy="46.5" r="1.5" fill="#FF6E15"/>
<circle cx="82.5" cy="46.5" r="1.5" fill="#FF6E15"/>
<circle cx="91.5" cy="46.5" r="1.5" fill="#FF6E15"/>
<circle cx="1.5" cy="55.5" r="1.5" fill="#FF6E15"/>
<circle cx="10.5" cy="55.5" r="1.5" fill="#FF6E15"/>
<circle cx="19.5" cy="55.5" r="1.5" fill="#FF6E15"/>
<circle cx="28.5" cy="55.5" r="1.5" fill="#FF6E15"/>
<circle cx="37.5" cy="55.5" r="1.5" fill="#FF6E15"/>
<circle cx="46.5" cy="55.5" r="1.5" fill="#FF6E15"/>
<circle cx="55.5" cy="55.5" r="1.5" fill="#FF6E15"/>
<circle cx="64.5" cy="55.5" r="1.5" fill="#FF6E15"/>
<circle cx="73.5" cy="55.5" r="1.5" fill="#FF6E15"/>
<circle cx="82.5" cy="55.5" r="1.5" fill="#FF6E15"/>
<circle cx="91.5" cy="55.5" r="1.5" fill="#FF6E15"/>
<circle cx="1.5" cy="64.5" r="1.5" fill="#FF6E15"/>
<circle cx="10.5" cy="64.5" r="1.5" fill="#FF6E15"/>
<circle cx="19.5" cy="64.5" r="1.5" fill="#FF6E15"/>
<circle cx="28.5" cy="64.5" r="1.5" fill="#FF6E15"/>
<circle cx="37.5" cy="64.5" r="1.5" fill="#FF6E15"/>
<circle cx="46.5" cy="64.5" r="1.5" fill="#FF6E15"/>
<circle cx="55.5" cy="64.5" r="1.5" fill="#FF6E15"/>
<circle cx="64.5" cy="64.5" r="1.5" fill="#FF6E15"/>
<circle cx="73.5" cy="64.5" r="1.5" fill="#FF6E15"/>
<circle cx="82.5" cy="64.5" r="1.5" fill="#FF6E15"/>
<circle cx="91.5" cy="64.5" r="1.5" fill="#FF6E15"/>
<circle cx="1.5" cy="73.5" r="1.5" fill="#FF6E15"/>
<circle cx="10.5" cy="73.5" r="1.5" fill="#FF6E15"/>
<circle cx="19.5" cy="73.5" r="1.5" fill="#FF6E15"/>
<circle cx="28.5" cy="73.5" r="1.5" fill="#FF6E15"/>
<circle cx="37.5" cy="73.5" r="1.5" fill="#FF6E15"/>
<circle cx="46.5" cy="73.5" r="1.5" fill="#FF6E15"/>
<circle cx="55.5" cy="73.5" r="1.5" fill="#FF6E15"/>
<circle cx="64.5" cy="73.5" r="1.5" fill="#FF6E15"/>
<circle cx="73.5" cy="73.5" r="1.5" fill="#FF6E15"/>
<circle cx="82.5" cy="73.5" r="1.5" fill="#FF6E15"/>
<circle cx="91.5" cy="73.5" r="1.5" fill="#FF6E15"/>
<circle cx="1.5" cy="82.5" r="1.5" fill="#FF6E15"/>
<circle cx="10.5" cy="82.5" r="1.5" fill="#FF6E15"/>
<circle cx="19.5" cy="82.5" r="1.5" fill="#FF6E15"/>
<circle cx="28.5" cy="82.5" r="1.5" fill="#FF6E15"/>
<circle cx="37.5" cy="82.5" r="1.5" fill="#FF6E15"/>
<circle cx="46.5" cy="82.5" r="1.5" fill="#FF6E15"/>
<circle cx="55.5" cy="82.5" r="1.5" fill="#FF6E15"/>
<circle cx="64.5" cy="82.5" r="1.5" fill="#FF6E15"/>
<circle cx="73.5" cy="82.5" r="1.5" fill="#FF6E15"/>
<circle cx="82.5" cy="82.5" r="1.5" fill="#FF6E15"/>
<circle cx="91.5" cy="82.5" r="1.5" fill="#FF6E15"/>
<circle cx="1.5" cy="91.5" r="1.5" fill="#FF6E15"/>
<circle cx="10.5" cy="91.5" r="1.5" fill="#FF6E15"/>
<circle cx="19.5" cy="91.5" r="1.5" fill="#FF6E15"/>
<circle cx="28.5" cy="91.5" r="1.5" fill="#FF6E15"/>
<circle cx="37.5" cy="91.5" r="1.5" fill="#FF6E15"/>
<circle cx="46.5" cy="91.5" r="1.5" fill="#FF6E15"/>
<circle cx="55.5" cy="91.5" r="1.5" fill="#FF6E15"/>
<circle cx="64.5" cy="91.5" r="1.5" fill="#FF6E15"/>
<circle cx="73.5" cy="91.5" r="1.5" fill="#FF6E15"/>
<circle cx="82.5" cy="91.5" r="1.5" fill="#FF6E15"/>
<circle cx="91.5" cy="91.5" r="1.5" fill="#FF6E15"/>
</g>
<defs>
<clipPath id="clip0_37_32">
<rect width="96" height="96" fill="white"/>
</clipPath>
</defs>
</svg>
