<svg width="90" height="17" viewBox="0 0 90 17" fill="none" xmlns="http://www.w3.org/2000/svg">
<path d="M9 1L11.472 6.008L17 6.816L13 10.712L13.944 16.216L9 13.616L4.056 16.216L5 10.712L1 6.816L6.528 6.008L9 1Z" fill="#FFEC43" fill-opacity="0.83" stroke="#FFEC43" stroke-opacity="0.83" stroke-linecap="round" stroke-linejoin="round"/>
<path d="M33 1L35.472 6.008L41 6.816L37 10.712L37.944 16.216L33 13.616L28.056 16.216L29 10.712L25 6.816L30.528 6.008L33 1Z" fill="#FFEC43" fill-opacity="0.83" stroke="#FFEC43" stroke-opacity="0.83" stroke-linecap="round" stroke-linejoin="round"/>
<path d="M57 1L59.472 6.008L65 6.816L61 10.712L61.944 16.216L57 13.616L52.056 16.216L53 10.712L49 6.816L54.528 6.008L57 1Z" fill="#FFEC43" fill-opacity="0.83" stroke="#FFEC43" stroke-opacity="0.83" stroke-linecap="round" stroke-linejoin="round"/>
<path d="M81 1L83.472 6.008L89 6.816L85 10.712L85.944 16.216L81 13.616L76.056 16.216L77 10.712L73 6.816L78.528 6.008L81 1Z" fill="#FFEC43" fill-opacity="0.83" stroke="#FFEC43" stroke-opacity="0.83" stroke-linecap="round" stroke-linejoin="round"/>
</svg>
