<svg width="40" height="69" viewBox="0 0 40 69" fill="none" xmlns="http://www.w3.org/2000/svg">
<path fill-rule="evenodd" clip-rule="evenodd" d="M7.45428 0H32.2348C36.3507 0 39.6878 3.34241 39.6878 7.45563V61.5457C39.6878 65.6616 36.3507 69 32.2348 69H7.45428C3.33836 69 0 65.6616 0 61.5457V7.44618C0 3.32081 3.33161 0 7.45428 0ZM7.40703 36.753C6.88866 36.753 6.46748 36.3318 6.46748 35.8135C6.46748 35.2951 6.88866 34.8753 7.40703 34.8753H32.2807C32.7991 34.8753 33.2203 35.2951 33.2203 35.8135C33.2203 36.3318 32.7991 36.753 32.2807 36.753H7.40703ZM7.40703 41.8908C6.88866 41.8908 6.46748 41.4697 6.46748 40.9513C6.46748 40.4329 6.88866 40.0117 7.40703 40.0117H27.8651C28.3835 40.0117 28.8047 40.4329 28.8047 40.9513C28.8047 41.4697 28.3835 41.8908 27.8651 41.8908H7.40703ZM7.40703 52.1637C6.88866 52.1637 6.46748 51.7439 6.46748 51.2256C6.46748 50.7072 6.88866 50.286 7.40703 50.286H13.942C14.4604 50.286 14.8816 50.7072 14.8816 51.2256C14.8816 51.7439 14.4604 52.1637 13.942 52.1637H7.40703ZM7.40703 47.0273C6.88866 47.0273 6.46748 46.6061 6.46748 46.0877C6.46748 45.5694 6.88866 45.1495 7.40703 45.1495H17.8014C18.3198 45.1495 18.741 45.5694 18.741 46.0877C18.741 46.6061 18.3198 47.0273 17.8014 47.0273H7.40703V47.0273ZM23.9733 52.103C24.0516 52.1716 24.1157 52.255 24.1619 52.3483C24.208 52.4417 24.2353 52.5433 24.2422 52.6472C24.2491 52.7511 24.2354 52.8553 24.202 52.954C24.1686 53.0526 24.1161 53.1437 24.0475 53.2221C23.9789 53.3004 23.8956 53.3645 23.8022 53.4107C23.7088 53.4568 23.6073 53.4841 23.5034 53.491C23.3995 53.4979 23.2952 53.4842 23.1966 53.4508C23.0979 53.4174 23.0068 53.3649 22.9285 53.2963L20.427 51.1054C20.3487 51.0368 20.2846 50.9534 20.2384 50.8601C20.1923 50.7667 20.165 50.6652 20.1581 50.5612C20.1512 50.4573 20.1649 50.3531 20.1983 50.2544C20.2317 50.1558 20.2842 50.0647 20.3528 49.9863L20.4324 49.9067L22.9285 47.7198C23.0069 47.6513 23.0981 47.5988 23.1968 47.5656C23.2954 47.5323 23.3997 47.5187 23.5037 47.5258C23.6076 47.5328 23.7091 47.5602 23.8024 47.6065C23.8957 47.6527 23.979 47.7169 24.0475 47.7954C24.1858 47.9538 24.2556 48.1605 24.2417 48.3703C24.2278 48.5801 24.1313 48.7758 23.9733 48.9145L22.1522 50.5087L23.9733 52.103V52.103ZM29.9751 53.2963C29.8967 53.365 29.8056 53.4175 29.707 53.4509C29.6083 53.4843 29.5041 53.498 29.4001 53.4911C29.2962 53.4842 29.1947 53.4569 29.1013 53.4107C29.0079 53.3646 28.9246 53.3005 28.856 53.2221C28.7873 53.1437 28.7348 53.0526 28.7014 52.954C28.668 52.8553 28.6544 52.7511 28.6613 52.6472C28.6682 52.5432 28.6955 52.4417 28.7416 52.3483C28.7878 52.255 28.8518 52.1716 28.9302 52.103L30.7499 50.5087L28.9302 48.9145C28.8518 48.8459 28.7878 48.7625 28.7416 48.6692C28.6955 48.5758 28.6682 48.4742 28.6613 48.3703C28.6544 48.2664 28.668 48.1621 28.7014 48.0635C28.7348 47.9648 28.7873 47.8737 28.856 47.7954C29.1435 47.4647 29.6457 47.4323 29.9751 47.7198L32.4697 49.9067L32.5507 49.9863C32.6192 50.0648 32.6717 50.1559 32.705 50.2546C32.7382 50.3533 32.7518 50.4576 32.7448 50.5615C32.7377 50.6655 32.7103 50.767 32.664 50.8603C32.6178 50.9536 32.5536 51.0369 32.4751 51.1054L29.9751 53.2963V53.2963ZM26.3073 47.2676C26.4059 46.841 26.8338 46.5751 27.2617 46.6736C27.6883 46.7735 27.9556 47.2014 27.8557 47.628L26.4261 53.7499C26.3778 53.9549 26.2503 54.1325 26.0715 54.2438C25.8926 54.3551 25.677 54.3911 25.4717 54.3439C25.0438 54.244 24.7778 53.8161 24.8777 53.3895L26.3073 47.2676ZM30.6973 21.5245C30.5879 21.4489 30.4732 21.4219 30.3476 21.4435C30.2221 21.4665 30.1208 21.5313 30.0453 21.6393L29.6362 22.2197C29.4877 22.1563 29.3338 22.1063 29.1745 22.0645C29.0166 22.0227 28.856 21.9916 28.6953 21.9673L28.5617 21.2073C28.5401 21.0791 28.478 20.9792 28.3727 20.9049C28.2674 20.8307 28.1527 20.8064 28.0244 20.8293L27.0687 20.9954C26.9472 21.017 26.8486 21.0791 26.7717 21.1844C26.6961 21.2896 26.6704 21.4057 26.692 21.534L26.8135 22.2292C26.661 22.2953 26.5139 22.3696 26.3748 22.4533C26.2344 22.537 26.1048 22.6274 25.982 22.7246L25.3394 22.2791C25.2368 22.2035 25.1234 22.1752 24.9965 22.1968C24.871 22.2184 24.7724 22.2845 24.6955 22.3912L24.1434 23.1782C24.0678 23.2862 24.0408 23.4023 24.0624 23.5278C24.0853 23.652 24.1501 23.7546 24.2581 23.8289L24.8386 24.2392C24.7751 24.3877 24.7252 24.5403 24.6834 24.6996C24.6415 24.8588 24.6105 25.0195 24.5862 25.1801L23.8262 25.3124C23.6979 25.334 23.5967 25.3975 23.5238 25.5028C23.4495 25.6067 23.4252 25.7228 23.4468 25.851L23.6142 26.8054C23.6358 26.9283 23.6979 27.0268 23.8032 27.1038C23.9085 27.178 24.0232 27.205 24.1515 27.1821L24.848 27.0606C24.9142 27.2145 24.9884 27.3603 25.0721 27.4993C25.1558 27.6397 25.2476 27.7733 25.3448 27.9016L24.898 28.536C24.8224 28.6386 24.794 28.7507 24.8156 28.8776C24.8372 29.0031 24.9034 29.103 25.01 29.1799L25.7984 29.7402C25.905 29.8104 26.0211 29.8333 26.1453 29.8117C26.2709 29.7901 26.3735 29.728 26.4491 29.6268L26.8581 29.0369C27.0052 29.099 27.1591 29.1503 27.3184 29.1907C27.4777 29.2326 27.637 29.265 27.7976 29.2879L27.9313 30.0493C27.9529 30.1775 28.0163 30.2774 28.1203 30.3517C28.2256 30.4246 28.3416 30.4502 28.4699 30.4273L29.4243 30.2612C29.5471 30.2396 29.6457 30.1775 29.7213 30.0722C29.7969 29.967 29.8239 29.8509 29.8009 29.7226L29.6794 29.0261C29.8308 28.9624 29.9774 28.888 30.1181 28.8033C30.2585 28.7183 30.3922 28.6278 30.5204 28.5293L31.1549 28.9775C31.2575 29.0531 31.3709 29.0814 31.4991 29.0585C31.6301 29.0355 31.7273 28.9707 31.7975 28.8654L32.359 28.0771C32.4292 27.9691 32.4522 27.8543 32.4306 27.7288C32.409 27.6032 32.3469 27.502 32.2456 27.425L31.6544 27.0174C31.7178 26.8689 31.7678 26.715 31.8096 26.5557C31.8514 26.3978 31.8838 26.2371 31.9068 26.0765L32.6682 25.9442C32.7964 25.9212 32.8963 25.8591 32.9705 25.7538C33.0434 25.6499 33.0691 25.5338 33.0461 25.4056L32.8801 24.4512C32.8585 24.3283 32.7964 24.2298 32.6911 24.1528C32.5858 24.0772 32.4697 24.0516 32.3415 24.0732L31.6449 24.1947C31.5796 24.0458 31.5052 23.9011 31.4222 23.7614C31.3371 23.6183 31.2467 23.486 31.1495 23.3645L31.5963 22.7206C31.6719 22.618 31.7003 22.5046 31.6773 22.3777C31.6557 22.2535 31.5896 22.1536 31.4829 22.0766L30.6973 21.5245V21.5245ZM27.9677 24.03C28.1878 23.9922 28.4024 23.9976 28.613 24.0462C28.8222 24.0961 29.0126 24.1798 29.1813 24.2986C29.35 24.4174 29.4931 24.5673 29.6119 24.7481C29.728 24.9304 29.8063 25.1302 29.8441 25.3502C29.8833 25.5689 29.8779 25.7835 29.8293 25.9941C29.7793 26.2034 29.6943 26.3937 29.5768 26.5624C29.4548 26.733 29.3019 26.879 29.126 26.9931C28.9451 27.1105 28.7453 27.1875 28.5252 27.2253C28.3065 27.2644 28.0919 27.259 27.88 27.2104C27.6707 27.1605 27.4817 27.0768 27.3117 26.958C27.1429 26.8392 26.9998 26.6893 26.8824 26.5084C26.7649 26.3262 26.6866 26.1264 26.6488 25.9064C26.611 25.6877 26.6164 25.4731 26.665 25.2625C26.715 25.0519 26.7987 24.8629 26.9175 24.6928C27.0363 24.5254 27.1861 24.3823 27.367 24.2635C27.5492 24.1461 27.749 24.0691 27.9677 24.03ZM20.6444 12.3815C20.5971 12.3343 20.5512 12.3005 20.5067 12.283C20.4648 12.2654 20.4135 12.256 20.3541 12.256C20.2948 12.256 20.2421 12.2654 20.1989 12.283C20.1544 12.3019 20.1085 12.3343 20.0653 12.3774L19.1473 13.2927C19.0743 13.365 18.9782 13.4093 18.8758 13.4179C18.7734 13.4266 18.6712 13.399 18.5871 13.3399C18.4832 13.2738 18.3711 13.209 18.2537 13.1442C18.1268 13.0767 18.0026 13.0146 17.8811 12.9593C17.7542 12.8999 17.6233 12.8459 17.495 12.7959C17.3776 12.75 17.2426 12.7028 17.0981 12.6542C17.0102 12.6254 16.9336 12.5695 16.8793 12.4946C16.825 12.4197 16.7958 12.3296 16.7957 12.2371V10.8358C16.7957 10.7737 16.7863 10.7197 16.7674 10.6725C16.7469 10.6248 16.717 10.5817 16.6797 10.5456C16.6435 10.508 16.6004 10.4778 16.5528 10.4565C16.5055 10.439 16.4515 10.4295 16.3894 10.4295H14.6291C14.5724 10.4295 14.5225 10.4376 14.4806 10.4552C14.4334 10.4754 14.3861 10.5065 14.3416 10.551C14.3011 10.5902 14.2714 10.632 14.2538 10.6765C14.2349 10.7211 14.2255 10.7751 14.2255 10.8358V12.1196C14.2255 12.3356 14.0689 12.5151 13.8637 12.5516C13.7233 12.5853 13.5951 12.6191 13.4803 12.6542C13.3507 12.6947 13.2198 12.7406 13.0916 12.7905L13.07 12.7986C12.9525 12.8432 12.8337 12.8945 12.7122 12.9512L12.6906 12.9593C12.5732 13.0146 12.4611 13.0713 12.3532 13.1294C12.1804 13.2239 11.9711 13.1888 11.8375 13.0578L10.8142 12.0494C10.7751 12.0076 10.7332 11.9765 10.6914 11.959C10.6509 11.9414 10.6023 11.932 10.5456 11.932C10.4889 11.932 10.4376 11.9428 10.3944 11.9603C10.3458 11.9806 10.2986 12.0143 10.2527 12.0589L9.02424 13.2913C8.97834 13.3372 8.94459 13.3831 8.9257 13.429C8.90815 13.4722 8.8987 13.5235 8.8987 13.5829C8.8987 13.6423 8.90815 13.695 8.9257 13.7382C8.94594 13.7827 8.97699 13.8273 9.02019 13.8705L9.93544 14.7884C10.088 14.9423 10.1042 15.1799 9.98268 15.35C9.91654 15.4526 9.85174 15.5646 9.7883 15.6834C9.71945 15.8103 9.65735 15.9345 9.60201 16.056C9.48492 16.3106 9.38349 16.572 9.29827 16.8389C9.26939 16.9267 9.21349 17.0031 9.13857 17.0572C9.06365 17.1112 8.97354 17.1402 8.88115 17.14L7.47858 17.1413C7.41648 17.1413 7.36248 17.1508 7.31659 17.1697C7.27069 17.1872 7.22749 17.2169 7.18834 17.2561C7.14785 17.2966 7.1195 17.3384 7.1006 17.3843C7.0817 17.4316 7.07225 17.4856 7.07225 17.5477V19.308C7.07225 19.3647 7.08035 19.4146 7.0979 19.4564C7.11815 19.5037 7.15055 19.5496 7.19374 19.5955C7.23424 19.6346 7.27609 19.6643 7.31929 19.6832C7.36383 19.7008 7.41783 19.7102 7.47858 19.7102H8.76235C8.97834 19.7102 9.15923 19.8668 9.19568 20.0734C9.22808 20.2124 9.26318 20.3406 9.29827 20.4567C9.33877 20.5863 9.38332 20.7159 9.43327 20.8442L9.44407 20.8752C9.48726 20.9846 9.53856 21.1047 9.59526 21.2329C9.65735 21.3693 9.7181 21.4948 9.77615 21.6069C9.86659 21.781 9.82879 21.9876 9.69785 22.1198L8.69216 23.1215C8.65031 23.162 8.61926 23.2025 8.60171 23.2443C8.58416 23.2862 8.57606 23.3348 8.57606 23.3901C8.57606 23.4482 8.58551 23.4981 8.60441 23.5413C8.62466 23.5899 8.65841 23.6385 8.70296 23.6831L9.92599 24.9209C9.96919 24.9614 10.0164 24.9925 10.0623 25.01C10.1096 25.0276 10.1636 25.0384 10.2257 25.0384C10.2878 25.0384 10.3445 25.0276 10.3917 25.01L10.4052 25.0046C10.4457 24.9871 10.4849 24.9601 10.5213 24.925L11.4285 24.0043C11.5769 23.8532 11.8064 23.8329 11.9765 23.9422C12.0913 24.0151 12.2087 24.0853 12.3262 24.1488C12.453 24.2176 12.5772 24.2784 12.6987 24.3351C12.9541 24.4503 13.2155 24.5517 13.4817 24.6388C13.6666 24.6996 13.7841 24.871 13.7841 25.0559V26.4572C13.7841 26.5193 13.7935 26.5746 13.8124 26.6205L13.8192 26.6367C13.8367 26.6745 13.8637 26.7109 13.9002 26.7474C13.942 26.7879 13.9852 26.8189 14.0284 26.8365C14.0743 26.8554 14.1283 26.8648 14.1904 26.8648H15.9507C16.0074 26.8648 16.0573 26.8554 16.0992 26.8392C16.1464 26.8189 16.1937 26.7865 16.2382 26.7433C16.2787 26.7028 16.3084 26.661 16.326 26.6164C16.3449 26.5719 16.3543 26.5193 16.3543 26.4572V25.1734C16.3543 24.9574 16.5109 24.7778 16.7161 24.7414C16.8578 24.7077 16.9874 24.6726 17.1049 24.6375C17.2372 24.5956 17.3668 24.5511 17.4896 24.5038C17.6125 24.4552 17.742 24.4012 17.8757 24.3405C18.0134 24.2784 18.1389 24.2176 18.2496 24.1609C18.4238 24.0691 18.6316 24.1069 18.7626 24.2392L19.7656 25.2436C19.8034 25.2841 19.8439 25.3138 19.8884 25.3327L19.91 25.3435C19.9465 25.3556 19.9897 25.361 20.0396 25.361C20.1017 25.361 20.1544 25.3516 20.1935 25.334C20.2381 25.3138 20.2786 25.2841 20.3164 25.2436L21.565 24.0111C21.6055 23.9665 21.6352 23.9206 21.6528 23.8747C21.6717 23.8275 21.6811 23.7722 21.6811 23.7114C21.6811 23.648 21.6717 23.5926 21.6528 23.5454L21.6474 23.5305C21.6298 23.4914 21.6028 23.4509 21.5677 23.4144L20.6471 22.5086C20.5755 22.4379 20.5303 22.3447 20.5193 22.2447C20.5082 22.1447 20.5319 22.0439 20.5863 21.9592C20.6592 21.8458 20.7281 21.7284 20.7915 21.6096C20.8604 21.4827 20.9225 21.3585 20.9778 21.2383C21.0359 21.1101 21.0899 20.9805 21.1412 20.8509C21.1871 20.7335 21.2343 20.5998 21.2829 20.454C21.3117 20.3665 21.3674 20.2903 21.4421 20.2362C21.5167 20.1822 21.6065 20.153 21.6987 20.153H23.1012C23.1633 20.153 23.2173 20.1422 23.2632 20.1247L23.2808 20.1179C23.3199 20.099 23.3564 20.072 23.3915 20.0369C23.432 19.9964 23.4617 19.9532 23.4806 19.9087C23.4981 19.8628 23.5076 19.8074 23.5076 19.7453V17.9864C23.5076 17.9297 23.4995 17.8797 23.4819 17.8365C23.4617 17.7893 23.4293 17.7434 23.3861 17.6975C23.3456 17.6584 23.3037 17.6287 23.2605 17.6111C23.216 17.5922 23.162 17.5828 23.1012 17.5828H21.8175C21.5974 17.5828 21.4152 17.4208 21.3828 17.2102C21.3531 17.0914 21.318 16.9672 21.2788 16.8416C21.241 16.7175 21.1965 16.5879 21.1452 16.4542L21.1371 16.4313C21.0885 16.3044 21.0386 16.1829 20.9859 16.0681C20.9279 15.9426 20.8685 15.8225 20.8064 15.7104C20.7132 15.5376 20.7483 15.3284 20.8793 15.1947L21.8877 14.1715C21.9295 14.1324 21.9606 14.0905 21.9781 14.0487C21.9957 14.0082 22.0038 13.9596 22.0038 13.9029C22.0038 13.8462 21.9943 13.7949 21.9768 13.7517C21.9552 13.7031 21.9228 13.6545 21.8782 13.6099L20.6444 12.3815V12.3815ZM20.8469 11.4771C21.0021 11.5418 21.1425 11.6377 21.2653 11.7605L22.5019 12.9957C22.6234 13.1199 22.7179 13.2576 22.7827 13.4088C22.8488 13.564 22.8826 13.7287 22.8826 13.9029C22.8826 14.0797 22.8475 14.2457 22.78 14.3996C22.7138 14.5508 22.6166 14.6845 22.4938 14.8033L21.7243 15.5835L21.781 15.705C21.8431 15.84 21.9012 15.979 21.9552 16.1194L21.9646 16.141C22.0173 16.2814 22.0686 16.4299 22.1158 16.5838L22.1522 16.704H23.1012C23.2767 16.704 23.4414 16.7364 23.5967 16.8011C23.7507 16.8667 23.8902 16.9621 24.007 17.0819L24.0165 17.0914C24.1366 17.2156 24.2284 17.3519 24.2905 17.5018C24.354 17.657 24.3864 17.819 24.3864 17.9864V19.7453C24.3864 19.9208 24.354 20.0842 24.2919 20.2381C24.2267 20.3939 24.1318 20.5356 24.0124 20.6552C23.8963 20.7699 23.7695 20.8577 23.6304 20.9211L23.5926 20.9373C23.4401 20.9994 23.2754 21.0305 23.1012 21.0305H22.0092L21.9565 21.1668C21.8998 21.3126 21.8391 21.4584 21.7743 21.6015C21.7087 21.745 21.6384 21.8864 21.5637 22.0254L21.5083 22.1266L22.2008 22.8083C22.3102 22.9244 22.3952 23.054 22.4546 23.1944L22.4695 23.2268C22.5289 23.3793 22.5599 23.5413 22.5599 23.7114C22.5599 23.8801 22.5289 24.0408 22.4695 24.1933C22.4079 24.3471 22.3181 24.4881 22.2049 24.6091L20.9495 25.8497C20.8293 25.9766 20.6916 26.0738 20.5404 26.1386C20.3825 26.2047 20.2165 26.2398 20.0396 26.2398C19.8803 26.2398 19.7291 26.2115 19.586 26.1548L19.5415 26.1386C19.3864 26.0707 19.2468 25.972 19.1311 25.8483L18.3644 25.0802L18.2361 25.1396C18.1025 25.2004 17.958 25.2611 17.8055 25.3192C17.657 25.3772 17.5085 25.4285 17.3614 25.4744L17.2318 25.5109V26.4572C17.2334 26.6259 17.2009 26.7933 17.1361 26.9492C17.0714 27.1051 16.9758 27.2463 16.8551 27.3643L16.8457 27.3738C16.7215 27.4939 16.5838 27.5857 16.4353 27.6464C16.2787 27.7099 16.1181 27.7423 15.9507 27.7423H14.1904C14.0163 27.7423 13.8516 27.7112 13.699 27.6491C13.5416 27.5848 13.3988 27.4893 13.2792 27.3684C13.1691 27.258 13.0799 27.1285 13.016 26.9863L12.9998 26.9499C12.9377 26.796 12.9053 26.6326 12.9053 26.4572V25.3651L12.7703 25.3138C12.6231 25.2571 12.4787 25.195 12.3356 25.1302C12.1858 25.0613 12.0427 24.9911 11.9117 24.9209L11.8105 24.8642L11.1274 25.5568C11.0127 25.6661 10.8831 25.7525 10.7427 25.8119L10.7103 25.8254C10.556 25.8861 10.3915 25.9168 10.2257 25.9158C10.0569 25.9158 9.89629 25.8861 9.74375 25.8254C9.58899 25.7648 9.44737 25.675 9.32662 25.5608L8.07794 24.2973C7.95645 24.1731 7.86195 24.0354 7.79716 23.8842C7.73059 23.728 7.6966 23.5599 7.69726 23.3901C7.69726 23.2133 7.73236 23.0472 7.79986 22.8934C7.86748 22.74 7.9658 22.6022 8.08874 22.4884L8.85685 21.7216L8.7961 21.5934C8.74346 21.4732 8.68676 21.3396 8.63006 21.1911L8.61791 21.1628C8.56122 21.0183 8.50857 20.8671 8.46132 20.7132L8.42487 20.589H7.47858C7.30309 20.589 7.1384 20.5566 6.98315 20.4918C6.83061 20.4284 6.69427 20.3339 6.57143 20.2111L6.56333 20.203C6.44184 20.0774 6.35139 19.9411 6.28929 19.7912C6.22585 19.636 6.1948 19.4753 6.1948 19.308V17.5477C6.1948 17.3722 6.22585 17.2075 6.28794 17.0549C6.35219 16.899 6.44722 16.7576 6.56738 16.6392C6.69427 16.5123 6.83331 16.4191 6.9872 16.3557C7.13975 16.2936 7.30444 16.2625 7.47858 16.2625H8.57067L8.62331 16.1262C8.67942 15.9792 8.74066 15.8342 8.8069 15.6915C8.8744 15.5417 8.94459 15.3999 9.01614 15.2676L9.07419 15.1637L8.40597 14.4941C8.28364 14.3756 8.18633 14.2338 8.11979 14.077C8.05361 13.9207 8.01964 13.7527 8.0199 13.5829C8.0199 13.4115 8.05364 13.2468 8.11979 13.0902C8.18649 12.9342 8.28275 12.7925 8.40327 12.6731L9.63845 11.4352C9.76265 11.3137 9.90034 11.2192 10.0515 11.1544C10.2081 11.0883 10.3728 11.0545 10.5456 11.0545C10.7224 11.0545 10.8885 11.0883 11.0437 11.1571C11.1936 11.2233 11.3286 11.3191 11.446 11.4433L12.2263 12.2114L12.3451 12.1547C12.4719 12.0967 12.6096 12.0386 12.7541 11.9819L12.773 11.9738C12.9174 11.9171 13.0686 11.8658 13.2239 11.8186L13.348 11.7821V10.8358C13.3464 10.667 13.379 10.4997 13.4437 10.3438C13.5084 10.1879 13.604 10.0467 13.7247 9.92869L13.7341 9.91924C13.8583 9.7991 13.996 9.70865 14.1445 9.64655C14.3011 9.58311 14.4617 9.55071 14.6291 9.55071H16.3894C16.5636 9.55071 16.7283 9.58176 16.8808 9.64385C17.0387 9.71 17.1778 9.80179 17.3006 9.92464C17.4235 10.0475 17.5166 10.1879 17.5801 10.3431C17.6422 10.4957 17.6745 10.6603 17.6745 10.8358V11.9279L17.8095 11.9792C17.9553 12.0359 18.1025 12.098 18.2442 12.1628C18.3941 12.2317 18.5372 12.3019 18.6681 12.3721L18.772 12.4301L19.4429 11.7632C19.5658 11.6377 19.7062 11.5418 19.8587 11.4771C20.0167 11.4109 20.1827 11.3772 20.3541 11.3772C20.5256 11.3772 20.6903 11.4096 20.8469 11.4771V11.4771ZM16.8079 15.0638C17.2844 15.2703 17.6988 15.5471 18.0431 15.8927L18.0687 15.9196C18.4035 16.2612 18.6735 16.6662 18.8733 17.1292L18.8868 17.167C19.0798 17.6381 19.177 18.1443 19.177 18.6465C19.177 19.1608 19.0758 19.6792 18.8733 20.1611V20.1652C18.6694 20.6376 18.39 21.0507 18.0431 21.399C17.6948 21.7473 17.2817 22.0254 16.8079 22.2292L16.7701 22.244C15.8095 22.6361 14.7326 22.6307 13.776 22.2292H13.7719C13.2981 22.0254 12.885 21.7473 12.5381 21.4003C12.1885 21.0507 11.9117 20.6376 11.7065 20.1652L11.693 20.1274C11.4986 19.6549 11.4028 19.1487 11.4028 18.6465C11.4028 18.1322 11.504 17.6138 11.7065 17.1319V17.1292C11.9117 16.654 12.1898 16.2409 12.5367 15.894C12.881 15.5471 13.2954 15.2703 13.7719 15.0638L13.8097 15.0503C14.2808 14.8559 14.7871 14.7587 15.2906 14.7587C15.8049 14.7587 16.3219 14.86 16.8038 15.0638H16.8079V15.0638ZM17.4221 16.5136C17.1548 16.2463 16.8335 16.0303 16.461 15.8697C16.0951 15.7145 15.6942 15.6375 15.2906 15.6375C14.8951 15.6375 14.5036 15.7104 14.1445 15.8576L14.1189 15.8697C13.7463 16.0303 13.425 16.2463 13.1577 16.5136C12.8891 16.7796 12.6744 17.1008 12.5124 17.4748C12.3572 17.8419 12.2803 18.2429 12.2803 18.6465C12.2803 19.0407 12.3545 19.4321 12.5003 19.7926L12.5124 19.8182C12.6744 20.1922 12.8891 20.5134 13.155 20.7794C13.4223 21.0467 13.7449 21.2626 14.1189 21.4233C14.4847 21.5785 14.8856 21.6555 15.2906 21.6555C15.6848 21.6555 16.0762 21.5826 16.4353 21.4354L16.461 21.4233C16.8349 21.2626 17.1575 21.0467 17.4221 20.7807C17.6907 20.5134 17.9054 20.1922 18.0674 19.8182C18.2213 19.451 18.2996 19.0501 18.2996 18.6465C18.2996 18.2523 18.2253 17.8608 18.0782 17.5004L18.0674 17.4748C17.9094 17.1116 17.7029 16.7971 17.4464 16.5352L17.4221 16.5136V16.5136ZM2.56755 58.6447H37.1094V7.38408H2.56755V58.6447ZM19.8344 60.9774C21.5205 60.9774 22.8988 62.3354 22.8988 64.0417C22.8988 65.7305 21.5421 67.1074 19.8344 67.1074C18.1484 67.1074 16.7688 65.7507 16.7688 64.0417C16.7688 62.357 18.1268 60.9774 19.8344 60.9774Z" fill="#309700"/>
</svg>
