<svg width="138" height="102" viewBox="0 0 138 102" fill="none" xmlns="http://www.w3.org/2000/svg">
<path fill-rule="evenodd" clip-rule="evenodd" d="M137.015 50.1421L137.244 51.2058L137.444 52.2751L137.613 53.3491L137.752 54.4272L137.861 55.5084L137.938 56.5918L137.985 57.6766L138 58.762L137.984 59.8471L137.937 60.931L137.859 62.0129L137.75 63.092L137.61 64.1673L137.44 65.2381L137.239 66.3036L137.008 67.3629L136.747 68.4152L136.457 69.4599L136.138 70.4961L135.79 71.5231L135.415 72.5403L135.011 73.547L134.581 74.5424L134.125 75.526L133.643 76.4973L133.136 77.4555L132.604 78.4001L132.048 79.3307L131.469 80.2468L130.868 81.1478L130.245 82.0334L129.601 82.903L128.936 83.7564L128.251 84.593L127.548 85.4126L126.825 86.2148L126.085 86.9992L125.328 87.7656L124.555 88.5136L123.765 89.2428L122.959 89.953L122.139 90.6439L121.305 91.3152L120.457 91.9667L119.596 92.5981L118.722 93.2092L117.837 93.7998L116.94 94.3697L116.033 94.9188L115.115 95.447L114.189 95.9541L113.253 96.4401L112.31 96.9049L111.359 97.3485L110.401 97.7709L109.437 98.172L108.467 98.5519L107.493 98.9107L106.514 99.2485L105.532 99.5654L104.547 99.8615L103.56 100.137L102.571 100.392L101.581 100.627L100.59 100.842L99.6001 101.038L98.6108 101.214L97.6229 101.371L96.6371 101.509L95.6539 101.63L94.674 101.732L93.6978 101.817L92.7259 101.886L91.7588 101.937L90.7971 101.973L89.8412 101.994L88.8916 102L87.9487 101.992L87.013 101.97L86.0848 101.935L85.1646 101.888L84.2527 101.829L83.3493 101.759L82.4548 101.678L81.5694 101.588L80.6933 101.488L79.8268 101.38L78.97 101.264L78.123 101.141L77.2859 101.011L76.4588 100.875L75.6416 100.733L74.8346 100.586L74.0375 100.435L73.2504 100.281L72.4731 100.122L71.7057 99.9614L70.948 99.7979L70.1999 99.6326L69.4611 99.4657L68.7316 99.2978L68.0111 99.1292L67.2995 98.9604L66.5965 98.7917L65.9018 98.6234L65.2153 98.4559L64.5367 98.2895L63.8656 98.1244L63.2019 97.9611L62.5452 97.7998L61.8952 97.6407L61.2517 97.4842L60.6142 97.3304L59.9825 97.1797L59.3563 97.0322L58.7352 96.8884L58.1188 96.7483L57.5068 96.6124L56.8988 96.4808L56.2945 96.3539L55.6934 96.2319L55.0952 96.1151L54.4994 96.0038L53.9055 95.898L53.3133 95.7981L52.7222 95.7039L52.1317 95.6157L51.5416 95.5334L50.9513 95.4569L50.3603 95.3864L49.7684 95.3215L49.175 95.2623L48.5798 95.2084L47.9823 95.1597L47.3823 95.1158L46.7792 95.0765L46.1729 95.0415L45.5631 95.0102L44.9493 94.9824L44.3313 94.9574L43.709 94.935L43.0821 94.9144L42.4505 94.8952L41.8139 94.8768L41.1723 94.8586L40.5256 94.8399L39.8738 94.8202L39.2168 94.7987L38.5547 94.7747L37.8876 94.7477L37.2155 94.7169L36.5387 94.6816L35.8572 94.6411L35.1712 94.5948L34.4812 94.5418L33.7872 94.4816L33.0896 94.4135L32.3888 94.3367L31.6852 94.2507L30.9791 94.1549L30.271 94.0485L29.5613 93.9311L28.8505 93.8021L28.1391 93.661L27.4275 93.5074L26.7163 93.3408L26.006 93.1609L25.2969 92.9674L24.5897 92.76L23.8847 92.5385L23.1825 92.3027L22.4835 92.0525L21.7882 91.7877L21.097 91.5084L20.4103 91.2144L19.7285 90.9057L19.0521 90.5825L18.3814 90.2447L17.7169 89.8923L17.0588 89.5256L16.4075 89.1446L15.7635 88.7495L15.1269 88.3404L14.4982 87.9174L13.8777 87.4808L13.2656 87.0307L12.6624 86.5673L12.0682 86.0908L11.4835 85.6013L10.9085 85.0992L10.3435 84.5846L9.78898 84.0576L9.24517 83.5185L8.71247 82.9675L8.19126 82.4048L7.68193 81.8304L7.18491 81.2447L6.70067 80.6477L6.22967 80.0397L5.77245 79.4209L5.32954 78.7914L4.90147 78.1514L4.48875 77.5011L4.09189 76.8409L3.71136 76.1709L3.34762 75.4916L3.00109 74.8032L2.67217 74.1062L2.36125 73.4009L2.06865 72.6878L1.7947 71.9672L1.53965 71.2397L1.30377 70.5057L1.08723 69.7657L0.890217 69.0202L0.712839 68.2697L0.555184 67.5148L0.417291 66.756L0.299159 65.9939L0.200746 65.229L0.121966 64.4618L0.0626909 63.693L0.0227524 62.9231L0.00193915 62.1525L0 61.3819L0.0166438 60.6119L0.051541 59.8428L0.104325 59.0753L0.174592 58.3097L0.261906 57.5467L0.365798 56.7866L0.485769 56.0299L0.62129 55.277L0.771809 54.5283L0.936749 53.7841L1.11551 53.0448L1.30748 52.3107L1.51203 51.582L1.72851 50.8591L1.95627 50.1421L2.19464 49.4312L2.44297 48.7266L2.70063 48.0284L2.96703 47.3368L3.24163 46.6517L3.52394 45.9733L3.8135 45.3016L4.10989 44.6366L4.41272 43.9783L4.72166 43.3268L5.03638 42.682L5.35662 42.0439L5.68212 41.4125L6.01265 40.7878L6.34801 40.1697L6.68804 39.5582L7.03257 38.9532L7.38146 38.3548L7.7346 37.763L8.09187 37.1776L8.45319 36.5986L8.81845 36.026L9.18758 35.4599L9.5605 34.9001L9.93714 34.3466L10.3174 33.7994L10.7013 33.2585L11.0886 32.7238L11.4793 32.1953L11.8734 31.6729L12.2706 31.1566L12.6709 30.6464L13.0742 30.1422L13.4802 29.6438L13.889 29.1512L14.3002 28.6643L14.7137 28.1829L15.1292 27.7069L15.5466 27.2362L15.9656 26.7704L16.3858 26.3095L16.8072 25.8531L17.2295 25.401L17.6524 24.953L18.0758 24.5089L18.4996 24.0685L18.9237 23.6315L19.3479 23.1977L19.7723 22.7669L20.1967 22.3389L20.6212 21.9135L21.0458 21.4907L21.4704 21.0701L21.8953 20.6517L22.3204 20.2353L22.7458 19.8209L23.1717 19.4083L23.5981 18.9975L24.0253 18.5884L24.4533 18.1809L24.8824 17.7751L25.3127 17.371L25.7443 16.9685L26.1775 16.5678L26.6125 16.1687L27.0494 15.7715L27.4885 15.3761L27.9298 14.9826L28.3737 14.5912L28.8202 14.202L29.2696 13.8149L29.7219 13.4302L30.1774 13.048L30.6362 12.6683L31.0984 12.2914L31.5642 11.9172L32.0336 11.546L32.5068 11.1777L32.9838 10.8126L33.4647 10.4506L33.9495 10.0919L34.4385 9.73656L34.9314 9.38458L35.4286 9.03613L35.93 8.69136L36.4357 8.35044L36.9459 8.01359L37.4606 7.68102L37.9799 7.35297L38.5038 7.0297L39.0325 6.71147L39.566 6.39854L40.1043 6.09118L40.6474 5.78965L41.1955 5.49421L41.7484 5.20512L42.3062 4.92261L42.8688 4.64692L43.4362 4.37825L44.0084 4.1168L44.5852 3.86276L45.1666 3.61627L45.7525 3.37749L46.3428 3.14654L46.9374 2.92351L47.5362 2.70849L48.1391 2.50156L48.7459 2.30275L49.3566 2.1121L49.971 1.92964L50.5891 1.75537L51.2106 1.5893L51.8354 1.43143L52.4635 1.28175L53.0948 1.14025L53.7291 1.00693L54.3663 0.881791L55.0064 0.76485L55.6491 0.656131L56.2945 0.555676L56.9424 0.463534L57.5927 0.379745L58.2453 0.30433L58.9001 0.237296L59.557 0.178639L60.2159 0.12834L60.8767 0.0863725L61.5393 0.0526995L62.2037 0.0272772L62.8697 0.0100562L63.5373 0.000982579L64.2064 0L64.8769 0.00705066L65.5488 0.022077L66.222 0.0450227L66.8965 0.0758345L67.5721 0.114463L68.2489 0.160863L68.9268 0.214995L69.6057 0.276828L70.2856 0.346337L70.9665 0.423503L71.6483 0.508319L72.331 0.600784L73.0145 0.700905L73.6988 0.8087L74.3838 0.924194L75.0694 1.04742L75.7557 1.17842L76.4425 1.31724L77.1298 1.46394L77.8175 1.61857L78.5055 1.78121L79.1937 1.95193L79.8822 2.1308L80.5707 2.31789L81.2591 2.5133L81.9475 2.71709L82.6356 2.92934L83.3235 3.15014L84.0108 3.37955L84.6977 3.61766L85.3839 3.86447L86.0694 4.11999L86.7542 4.38415L87.4383 4.65686L88.1217 4.93799L88.8044 5.22739L89.4867 5.52488L90.1685 5.83026L90.8501 6.14333L91.5316 6.46388L92.2133 6.79168L92.8954 7.1265L93.5781 7.46813L94.2617 7.81637L94.9465 8.171L95.6329 8.53186L96.3211 8.89877L97.0116 9.27158L97.7045 9.65019L98.4004 10.0345L99.0995 10.4245L99.8021 10.82L100.509 11.2212L101.219 11.6281L101.934 12.0407L102.654 12.4591L103.379 12.8836L104.109 13.3142L104.845 13.7514L105.585 14.1952L106.332 14.6461L107.083 15.1043L107.841 15.5703L108.603 16.0445L109.371 16.5274L110.143 17.0193L110.92 17.521L111.701 18.0328L112.485 18.5553L113.272 19.089L114.062 19.6346L114.853 20.1924L115.646 20.7631L116.438 21.347L117.23 21.9445L118.021 22.5562L118.809 23.1824L119.595 23.8235L120.376 24.4797L121.153 25.1515L121.924 25.8389L122.688 26.5423L123.445 27.2618L124.192 27.9976L124.93 28.7497L125.658 29.5183L126.374 30.3033L127.077 31.1046L127.766 31.9223L128.44 32.7561L129.099 33.606L129.741 34.4716L130.366 35.3529L130.971 36.2494L131.558 37.1608L132.123 38.0867L132.667 39.0268L133.189 39.9805L133.688 40.9474L134.163 41.9269L134.613 42.9185L135.038 43.9215L135.436 44.9353L135.808 45.9593L136.152 46.9926L136.468 48.0347L136.756 49.0848L137.015 50.1421Z" fill="#2D780A"/>
</svg>
