<svg width="61" height="50" viewBox="0 0 61 50" fill="none" xmlns="http://www.w3.org/2000/svg">
<path fill-rule="evenodd" clip-rule="evenodd" d="M1.63481 0H58.5101C58.9433 0.00129436 59.3584 0.174375 59.6647 0.481441C59.971 0.788507 60.1436 1.20461 60.1449 1.63886V39.421C60.1436 39.8553 59.971 40.2714 59.6647 40.5784C59.3584 40.8855 58.9433 41.0586 58.5101 41.0599H1.63481C1.41948 41.0592 1.20639 41.0161 1.00769 40.9329C0.809003 40.8497 0.628604 40.728 0.476799 40.5749C0.324994 40.4219 0.204755 40.2403 0.122946 40.0406C0.0411384 39.8409 -0.000636401 39.627 7.32781e-06 39.4112V1.62905C0.00386959 1.1965 0.177656 0.782908 0.483684 0.477956C0.789712 0.173005 1.20331 0.00127392 1.63481 0V0ZM6.60283 31.3592C6.43006 31.37 6.25691 31.3451 6.09407 31.2863C5.93122 31.2274 5.78213 31.1357 5.65598 31.0169C5.52983 30.898 5.42929 30.7546 5.36057 30.5953C5.29185 30.436 5.2564 30.2643 5.2564 30.0908C5.2564 29.9172 5.29185 29.7455 5.36057 29.5863C5.42929 29.427 5.52983 29.2835 5.65598 29.1647C5.78213 29.0458 5.93122 28.9541 6.09407 28.8953C6.25691 28.8364 6.43006 28.8116 6.60283 28.8224H25.9121C26.0848 28.8116 26.258 28.8364 26.4208 28.8953C26.5837 28.9541 26.7328 29.0458 26.8589 29.1647C26.9851 29.2835 27.0856 29.427 27.1543 29.5863C27.223 29.7455 27.2585 29.9172 27.2585 30.0908C27.2585 30.2643 27.223 30.436 27.1543 30.5953C27.0856 30.7546 26.9851 30.898 26.8589 31.0169C26.7328 31.1357 26.5837 31.2274 26.4208 31.2863C26.258 31.3451 26.0848 31.37 25.9121 31.3592H6.60283ZM6.67625 24.843C6.35429 24.8229 6.05207 24.6805 5.83117 24.4449C5.61026 24.2092 5.48728 23.898 5.48728 23.5746C5.48728 23.2512 5.61026 22.94 5.83117 22.7043C6.05207 22.4686 6.35429 22.3263 6.67625 22.3062H20.7531C21.0751 22.3263 21.3773 22.4686 21.5982 22.7043C21.8191 22.94 21.9421 23.2512 21.9421 23.5746C21.9421 23.898 21.8191 24.2092 21.5982 24.4449C21.3773 24.6805 21.0751 24.8229 20.7531 24.843H6.67625ZM6.60283 18.3513C6.43006 18.3621 6.25691 18.3373 6.09407 18.2784C5.93122 18.2196 5.78213 18.1279 5.65598 18.009C5.52983 17.8902 5.42929 17.7467 5.36057 17.5874C5.29185 17.4282 5.2564 17.2565 5.2564 17.0829C5.2564 16.9094 5.29185 16.7377 5.36057 16.5784C5.42929 16.4191 5.52983 16.2756 5.65598 16.1568C5.78213 16.038 5.93122 15.9463 6.09407 15.8874C6.25691 15.8286 6.43006 15.8037 6.60283 15.8145H16.5682C16.8902 15.8346 17.1924 15.977 17.4133 16.2126C17.6342 16.4483 17.7572 16.7595 17.7572 17.0829C17.7572 17.4063 17.6342 17.7175 17.4133 17.9532C17.1924 18.1889 16.8902 18.3312 16.5682 18.3513H6.60283ZM6.60283 11.8449C6.43006 11.8557 6.25691 11.8309 6.09407 11.772C5.93122 11.7132 5.78213 11.6215 5.65598 11.5027C5.52983 11.3838 5.42929 11.2403 5.36057 11.0811C5.29185 10.9218 5.2564 10.7501 5.2564 10.5765C5.2564 10.403 5.29185 10.2313 5.36057 10.072C5.42929 9.91275 5.52983 9.76927 5.65598 9.65043C5.78213 9.53159 5.93122 9.43991 6.09407 9.38104C6.25691 9.32218 6.43006 9.29737 6.60283 9.30814H12.3834C12.7053 9.32823 13.0075 9.4706 13.2284 9.70627C13.4494 9.94193 13.5723 10.2532 13.5723 10.5765C13.5723 10.8999 13.4494 11.2112 13.2284 11.4468C13.0075 11.6825 12.7053 11.8249 12.3834 11.8449H6.60283ZM54.0805 24.6958V27.8557L47.605 31.5358V27.8557L51.7752 26.2659L47.605 24.6958V21.0157L54.0805 24.6958V24.6958ZM42.8621 32.5466H40.1358L43.562 19.2444H46.3177L42.8914 32.5466H42.8621ZM38.2563 24.6958L34.0812 26.2659L38.2563 27.8557V31.5358L31.8149 27.8557V24.6958L38.2954 21.0157V24.6958H38.2563ZM41.0315 5.71639V7.51717C41.0315 7.75532 40.9371 7.98372 40.7691 8.15211C40.6012 8.32051 40.3733 8.41511 40.1358 8.41511H38.6674C38.484 9.02005 38.2206 9.59765 37.8843 10.1325L38.8632 11.1138C39.03 11.2821 39.1236 11.5096 39.1236 11.7468C39.1236 11.984 39.03 12.2115 38.8632 12.3798L37.5367 13.7095C37.3689 13.8767 37.1419 13.9706 36.9053 13.9706C36.6687 13.9706 36.4418 13.8767 36.2739 13.7095L35.2069 12.6398C34.6517 12.9385 34.0591 13.1612 33.4449 13.3023V14.686C33.4436 14.9237 33.3488 15.1514 33.1811 15.3195C33.0134 15.4876 32.7863 15.5826 32.5491 15.5839H30.6549C30.4178 15.5826 30.1907 15.4876 30.023 15.3195C29.8553 15.1514 29.7605 14.9237 29.7592 14.686V13.1747C29.1555 12.9937 28.5792 12.7312 28.0461 12.3945L27.0672 13.3759C26.9843 13.46 26.8856 13.5268 26.7768 13.5723C26.668 13.6179 26.5513 13.6414 26.4333 13.6414C26.3154 13.6414 26.1987 13.6179 26.0898 13.5723C25.981 13.5268 25.8823 13.46 25.7995 13.3759L24.473 12.0461C24.3118 11.878 24.2218 11.6538 24.2218 11.4205C24.2218 11.1873 24.3118 10.9631 24.473 10.7949L25.5401 9.73013C25.2422 9.17179 25.0199 8.57608 24.8793 7.95878H23.4941C23.2566 7.95878 23.0287 7.86418 22.8608 7.69578C22.6928 7.52739 22.5984 7.29899 22.5984 7.06084V5.73602H1.51244V34.7596C1.51244 35.15 1.66714 35.5244 1.94252 35.8004C2.21789 36.0765 2.59138 36.2316 2.98082 36.2316H57.1935C57.5829 36.2316 57.9564 36.0765 58.2318 35.8004C58.5072 35.5244 58.6619 35.15 58.6619 34.7596V5.71639H41.0315ZM35.4419 5.71639H28.2027C28.1674 5.92388 28.1494 6.13396 28.1489 6.34446C28.2167 7.27404 28.6328 8.14348 29.3138 8.77808C29.9948 9.41268 30.8901 9.76541 31.8198 9.76541C32.7496 9.76541 33.6449 9.41268 34.3259 8.77808C35.0069 8.14348 35.423 7.27404 35.4908 6.34446C35.4919 6.1341 35.4756 5.92402 35.4419 5.71639V5.71639ZM55.8964 2.41413C56.09 2.41413 56.2793 2.47169 56.4403 2.57952C56.6013 2.68735 56.7267 2.84062 56.8008 3.01994C56.8749 3.19926 56.8943 3.39657 56.8565 3.58694C56.8188 3.7773 56.7255 3.95216 56.5886 4.08941C56.4517 4.22665 56.2773 4.32012 56.0874 4.35798C55.8975 4.39585 55.7007 4.37642 55.5218 4.30214C55.3429 4.22786 55.19 4.10208 55.0825 3.9407C54.9749 3.77931 54.9175 3.58958 54.9175 3.39549C54.9175 3.13521 55.0206 2.8856 55.2042 2.70156C55.3878 2.51752 55.6368 2.41413 55.8964 2.41413ZM49.3181 2.41413C49.5117 2.41413 49.7009 2.47169 49.8619 2.57952C50.0229 2.68735 50.1484 2.84062 50.2225 3.01994C50.2966 3.19926 50.3159 3.39657 50.2782 3.58694C50.2404 3.7773 50.1472 3.95216 50.0103 4.08941C49.8734 4.22665 49.6989 4.32012 49.509 4.35798C49.3191 4.39585 49.1223 4.37642 48.9434 4.30214C48.7646 4.22786 48.6117 4.10208 48.5041 3.9407C48.3966 3.77931 48.3391 3.58958 48.3391 3.39549C48.3391 3.13521 48.4423 2.8856 48.6259 2.70156C48.8094 2.51752 49.0584 2.41413 49.3181 2.41413ZM52.6072 2.41413C52.8009 2.41413 52.9901 2.47169 53.1511 2.57952C53.3121 2.68735 53.4376 2.84062 53.5116 3.01994C53.5857 3.19926 53.6051 3.39657 53.5674 3.58694C53.5296 3.7773 53.4363 3.95216 53.2994 4.08941C53.1625 4.22665 52.9881 4.32012 52.7982 4.35798C52.6083 4.39585 52.4115 4.37642 52.2326 4.30214C52.0537 4.22786 51.9009 4.10208 51.7933 3.9407C51.6857 3.77931 51.6283 3.58958 51.6283 3.39549C51.6283 3.13521 51.7315 2.8856 51.915 2.70156C52.0986 2.51752 52.3476 2.41413 52.6072 2.41413ZM22.6571 43.3121H37.4878C37.527 45.8832 38.5842 48.1894 41.4475 50H18.6974C21.0028 48.3268 22.6669 46.3003 22.6571 43.3121V43.3121Z" fill="#309700"/>
</svg>
